<?xml version="1.0" encoding="utf-8"?>
<!-- Generator: Adobe Illustrator 27.3.1, SVG Export Plug-In . SVG Version: 6.00 Build 0)  -->
<svg version="1.1" id="Layer_2_00000165206549842635058940000015924960719113631423_"
	 xmlns="http://www.w3.org/2000/svg" xmlns:xlink="http://www.w3.org/1999/xlink" x="0px" y="0px" viewBox="0 0 46.3 64.2"
	 style="enable-background:new 0 0 46.3 64.2;" xml:space="preserve">
<style type="text/css">
	.st0{fill:#FFFFFF;}
</style>
<g id="Layer_1-2">
	<path class="st0" d="M3.8,63.8c15.4-11.7,27.4-27.3,34.7-45.2c2-5,3.7-10.2,4.9-15.4l-4.6,0.6c2,4.4,2.5,9.2,1.9,14
		c-0.2,1.2,1.1,2.3,2.2,2.5c1.3,0.2,2.3-0.6,2.7-1.8c2.2-5.8-1.1-12.8-6.8-15s-12.9,1.4-15,7.3c-0.5,1.3,0.5,2.7,1.8,3.1
		c1.4,0.4,2.6-0.5,3.1-1.8c1.2-3.3,5.5-5.2,8.7-3.9c3.5,1.4,4.7,5.7,3.5,8.9l4.9,0.7c0.7-5.7-0.3-11.3-2.6-16.5
		c-0.9-2-4.1-1.4-4.6,0.6c-4.2,17.8-13.2,34.3-25.9,47.5C9.2,53,5.3,56.4,1.2,59.5c-1.1,0.8-1.6,2.2-0.9,3.4C1,64,2.7,64.6,3.8,63.8
		L3.8,63.8L3.8,63.8z"/>
</g>
</svg>
