<?xml version="1.0" encoding="utf-8"?>
<!-- Generator: Adobe Illustrator 27.3.1, SVG Export Plug-In . SVG Version: 6.00 Build 0)  -->
<svg version="1.1" id="Layer_2_00000177479982599021385810000012373572095121686688_"
	 xmlns="http://www.w3.org/2000/svg" xmlns:xlink="http://www.w3.org/1999/xlink" x="0px" y="0px" viewBox="0 0 65.4 81.2"
	 style="enable-background:new 0 0 65.4 81.2;" xml:space="preserve">
<style type="text/css">
	.st0{fill:#FFFFFF;}
</style>
<g id="Layer_1-2">
	<path class="st0" d="M2.5,5.5C15.1,4,28.7,5.8,39.8,11.9c4.8,2.6,9.1,6.4,10.3,12c1.1,4.9-1,9.5-5.6,11.5c-2.2,1-4.7,1.3-7.1,1.4
		c-1.2,0-2.5,0-3.7-0.2c-0.3,0-0.7-0.1-1-0.3c0.1,0.1,0,0.1,0.1,0.2c-0.1-0.1,0-0.4,0-0.6c0.2-1.1,1-2,1.7-2.8
		c1-1.1,2.1-2.1,3.2-3.1c2.2-1.8,4.7-3.2,7.4-3.9c4.5-1.2,10.1-0.3,13.1,3.6c3.2,4.1,2.3,9.7,0.8,14.3c-2,5.9-5.2,11.6-8.5,16.9
		s-7.1,9.8-12.6,12.5l3.8,2.2c0-3.4,0.1-6.9,0.1-10.3h-5c0.1,5.3,1.5,12,6.7,14.7c4.2,2.2,10.5,1.6,12.6-3.2
		c0.6-1.2,0.3-2.7-0.9-3.4c-1.1-0.6-2.8-0.3-3.4,0.9s-1.3,1.7-2.5,1.9s-2.7-0.1-3.8-0.8c-3-1.9-3.6-6.7-3.7-10.1c-0.1-3.2-5-3.2-5,0
		c0,3.4-0.1,6.9-0.1,10.3c0,2,2.1,3,3.8,2.2c5.9-2.9,10.2-7.9,13.8-13.4S61,53,63.3,46.9s3.4-13.2-0.2-19s-10.5-8-17-7
		c-3.3,0.5-6.6,1.9-9.4,3.8s-5.6,4.3-7.5,7.1s-2.3,7.1,1.1,9c1.5,0.8,3.4,0.9,5,1c1.5,0.1,3,0,4.5-0.1c6.4-0.7,12.6-3.8,14.8-10.2
		s-0.5-13.8-5.2-18.5c-5-5-11.9-7.9-18.6-9.9C23.5,0.7,15.8-0.3,8.2,0C6.3,0.1,4.4,0.3,2.5,0.5C1.2,0.7,0,1.5,0,3
		C0,4.2,1.1,5.7,2.5,5.5L2.5,5.5z"/>
</g>
</svg>
