<?xml version="1.0" encoding="utf-8"?>
<!-- Generator: Adobe Illustrator 27.3.1, SVG Export Plug-In . SVG Version: 6.00 Build 0)  -->
<svg version="1.1" id="Layer_2_00000114766244111557817420000009886071231750029725_"
	 xmlns="http://www.w3.org/2000/svg" xmlns:xlink="http://www.w3.org/1999/xlink" x="0px" y="0px" viewBox="0 0 70.5 75.8"
	 style="enable-background:new 0 0 70.5 75.8;" xml:space="preserve">
<style type="text/css">
	.st0{fill:#FFFFFF;}
</style>
<g id="Layer_1-2">
	<path class="st0" d="M2.4,75.8c7.6,0.3,15.1-1.3,22-4.6c6.2-2.9,12.8-7.6,15.7-14c1.4-3.2,2-6.6,1-10c-0.9-3-2.9-5.9-5.7-7.4
		s-6.2-1.6-9.1-0.1c-2.6,1.4-4.5,4-5.5,6.7c-2.5,6.5,0.7,13.2,5.5,17.7c2.5,2.5,5.5,4.6,8.5,6.5c3.3,2.1,6.9,3.3,10.8,2.6
		c7-1.2,12.2-7.6,15.5-13.4s5.2-11.9,6-18.3c1.6-12.5-1.5-25.9-9.1-36.1c-1-1.3-2-2.6-3.1-3.8l-2.4,4.2C57.7,7,62.5,10,65.7,14.4
		l3.9-3C65.3,6.7,59.9,2.8,54,0.3c-1-0.4-2.2-0.5-3,0.4c-0.7,0.7-1,2.1-0.4,3c3.7,5.1,5.2,11.4,4,17.6c-0.3,1.3,0.4,2.7,1.8,3.1
		c1.2,0.3,2.8-0.4,3.1-1.8c1.5-7.4-0.1-15.3-4.5-21.5l-3.4,3.4C57.1,7,62,10.5,66.1,14.9c1.9,2,5.6-0.7,3.9-3
		c-4-5.5-9.7-9.4-16.3-10.9c-2.5-0.6-4.1,2.3-2.4,4.2c7.2,8,11,18.7,11.1,29.4S59.2,57,51.4,64.5c-1.9,1.8-4.3,3.5-7,3.9
		c-3.1,0.4-5.9-1.3-8.3-2.9c-4.5-3-9.6-6.8-10.9-12.3c-0.9-3.6,1.2-9,5-9.6c4.4-0.7,7.2,5,6.3,9C35,59,28.5,63.5,23,66.3
		c-6.3,3.2-13.4,4.7-20.5,4.4C-0.8,70.6-0.8,75.6,2.4,75.8L2.4,75.8L2.4,75.8z"/>
</g>
</svg>
