<?xml version="1.0" encoding="utf-8"?>
<!-- Generator: Adobe Illustrator 27.3.1, SVG Export Plug-In . SVG Version: 6.00 Build 0)  -->
<svg version="1.1" id="Layer_2_00000109726876949401558780000005790576341025771662_"
	 xmlns="http://www.w3.org/2000/svg" xmlns:xlink="http://www.w3.org/1999/xlink" x="0px" y="0px" viewBox="0 0 33.7 71.7"
	 style="enable-background:new 0 0 33.7 71.7;" xml:space="preserve">
<style type="text/css">
	.st0{fill:#FFFFFF;}
</style>
<g id="Layer_1-2">
	<path class="st0" d="M7,68.6C1.8,50.5,7.2,30.1,19.9,16.3c3.6-3.9,7.8-7.3,12.5-9.9l-3.7-2.8c-1.6,4.5-3.2,9-4.8,13.6l4.8,1.3
		C30,13.3,31,8,31.6,2.7c0.2-1.4-1.3-2.5-2.5-2.5c-3.3-0.1-6.6-0.1-9.9-0.2s-3.2,4.9,0,5s6.6,0.1,9.9,0.2l-2.5-2.5
		c-0.6,4.9-1.5,9.7-2.7,14.4c-0.8,3.2,3.8,4.3,4.8,1.3c1.6-4.5,3.2-9,4.8-13.6c0.8-2.1-1.9-3.8-3.7-2.8C11.9,12.2,0.6,32.3,0,52.8
		c-0.2,5.8,0.6,11.6,2.2,17.1C3.1,73,7.9,71.7,7,68.6L7,68.6L7,68.6z"/>
</g>
</svg>
