<?xml version="1.0" encoding="utf-8"?>
<!-- Generator: Adobe Illustrator 27.3.1, SVG Export Plug-In . SVG Version: 6.00 Build 0)  -->
<svg version="1.1" id="Layer_2_00000013910956970906170330000014069893425605194642_"
	 xmlns="http://www.w3.org/2000/svg" xmlns:xlink="http://www.w3.org/1999/xlink" x="0px" y="0px" viewBox="0 0 39.3 65.2"
	 style="enable-background:new 0 0 39.3 65.2;" xml:space="preserve">
<style type="text/css">
	.st0{fill:#FFFFFF;}
</style>
<g id="Layer_1-2">
	<path class="st0" d="M39.3,62.7c-1.9-20-9.9-39.1-22.9-54.4C12.9,4.1,8.4-0.2,2.5,0C1.1,0-0.5,1.6,0.1,3.2c2.6,6.5,5.1,13,7.7,19.5
		c0.5,1.2,1.4,2,2.7,1.8c1.2-0.2,2.2-1.2,2.2-2.5C12.4,15.9,12,9.9,11.6,3.8L9.1,6.3c4.5-0.2,8.8,1.4,12,4.6
		c2.3,2.3,5.8-1.2,3.5-3.5C20.6,3.3,14.9,1,9.1,1.3C7.8,1.4,6.5,2.4,6.6,3.8C7,9.9,7.4,15.9,7.8,22l4.9-0.7C10.1,14.8,7.5,8.3,5,1.8
		L2.5,5c4.3-0.1,7.5,3.5,10.1,6.5c2.9,3.4,5.6,7.1,8,10.9c4.9,7.8,8.5,16.3,11,25.1c1.3,5,2.3,10,2.8,15.1c0.1,1.3,1.1,2.5,2.5,2.5
		C38,65.2,39.4,64,39.3,62.7C39.3,62.7,39.3,62.7,39.3,62.7z"/>
</g>
</svg>
