<?xml version="1.0" encoding="utf-8"?>
<!-- Generator: Adobe Illustrator 27.3.1, SVG Export Plug-In . SVG Version: 6.00 Build 0)  -->
<svg version="1.1" id="Layer_2_00000104681122444079081010000002495539352484888760_"
	 xmlns="http://www.w3.org/2000/svg" xmlns:xlink="http://www.w3.org/1999/xlink" x="0px" y="0px" viewBox="0 0 51 63.7"
	 style="enable-background:new 0 0 51 63.7;" xml:space="preserve">
<style type="text/css">
	.st0{fill:#FFFFFF;}
</style>
<g id="Layer_1-2">
	<path class="st0" d="M1.8,4.9c9.9,1.5,20.7,3.4,28.4,10.2c3.4,3,6.1,6.8,7.2,11.3c1.3,5.1,0.8,10.7,0,15.9
		c-1,6.1-2.8,12.1-5.4,17.7l4.7,1.3c0-6.1-1.6-12.1-4.8-17.3c-1.4-2.4-5.4-0.8-4.6,1.9c1.6,5.4,3.2,10.7,4.8,16.1
		c0.6,1.9,2.7,2.3,4.2,1.1c4.6-3.7,9.2-7.3,13.8-11c1.1-0.8,0.9-2.7,0-3.5c-1-1-2.5-0.8-3.5,0c-4.6,3.7-9.2,7.3-13.8,11l4.2,1.1
		c-1.6-5.4-3.2-10.7-4.8-16.1l-4.6,1.9c2.7,4.5,4.1,9.6,4.1,14.8c0,2.3,3.6,3.6,4.7,1.3C39,57,40.9,51.3,42,45.4s1.7-12.1,0.7-18.1
		C41,16.3,32.2,8.6,22.4,4.7C16.2,2.2,9.7,1,3.2,0C1.8-0.2,0.5,0.4,0.1,1.8C-0.2,3,0.5,4.7,1.8,4.9L1.8,4.9L1.8,4.9z"/>
</g>
</svg>
