<?xml version="1.0" encoding="utf-8"?>
<!-- Generator: Adobe Illustrator 27.3.1, SVG Export Plug-In . SVG Version: 6.00 Build 0)  -->
<svg version="1.1" id="Layer_2_00000054250346967669936440000011561619317036773252_"
	 xmlns="http://www.w3.org/2000/svg" xmlns:xlink="http://www.w3.org/1999/xlink" x="0px" y="0px" viewBox="0 0 30 78.9"
	 style="enable-background:new 0 0 30 78.9;" xml:space="preserve">
<style type="text/css">
	.st0{fill:#FFFFFF;}
</style>
<g id="Layer_1-2">
	<g>
		<path class="st0" d="M19.2,2.5C7.9,12.2,1.3,27.3,2.7,42.1s11.1,28.7,24.9,34.3c-3.8-3.8-6.1-9-6.5-14.3c2.2,4.1,3.8,8.5,4.9,13
			c-4.7,0.5-9.5-0.8-13.3-3.7"/>
		<path class="st0" d="M17.4,0.7C7.8,9,1.6,20.9,0.2,33.5S2.9,57.8,10.7,67c4.4,5.2,9.9,9.2,16.2,11.8c1,0.4,2.3-0.3,2.8-1.2
			c0.6-1,0.4-2.2-0.4-3c-3.3-3.4-5.4-7.8-5.7-12.5l-4.7,1.3c2.1,3.9,3.6,8.1,4.6,12.4l2.4-3.2c-4.4,0.4-8.5-0.7-12.1-3.3
			c-1.1-0.8-2.8-0.2-3.4,0.9c-0.7,1.3-0.2,2.6,0.9,3.4c4.2,3.1,9.4,4.5,14.6,4c1.6-0.2,2.8-1.5,2.4-3.2c-1.1-4.7-2.9-9.3-5.1-13.6
			c-1.1-2.1-4.9-1.2-4.7,1.3c0.5,6.1,3,11.7,7.2,16.1l2.4-4.2C18.5,70,11,61.4,7.4,51.7C3.6,41.2,4.5,29.5,9.3,19.5
			c2.8-5.8,6.8-11,11.6-15.2c1-0.9,0.9-2.6,0-3.5C19.9-0.3,18.4-0.2,17.4,0.7L17.4,0.7L17.4,0.7z"/>
	</g>
</g>
</svg>
